<svg width="80" height="80" viewBox="0 0 80 80" fill="none" xmlns="http://www.w3.org/2000/svg">
<rect width="80" height="80" rx="10" fill="#385EC1"/>
<path d="M25 48H35.5L42 56L68 56.5L70 60.5L38.5 67.5L32 64H25V48Z" fill="white"/>
<path d="M25 64H30.0848C31.0101 64 31.9172 64.2568 32.7053 64.7417L37.3127 67.5771C37.7536 67.8484 38.2826 67.9382 38.7883 67.8276L69.1818 61.179C69.6595 61.0745 70 60.6514 70 60.1624V60.1624C70 57.8636 68.1364 56 65.8376 56H42.5" stroke="#385EC1" stroke-width="2"/>
<path d="M25 48H35.5194C35.8232 48 36.1105 48.1381 36.3002 48.3753L41.4322 54.7903C41.7998 55.2497 42 55.8205 42 56.4089V56.4089C42 57.8399 40.8399 59 39.4089 59H38.8284C38.298 59 37.7893 58.7893 37.4142 58.4142L33.5 54.5L33 54" stroke="#385EC1" stroke-width="2"/>
<path d="M18 46H23C23.5523 46 24 46.4477 24 47V65C24 65.5523 23.5523 66 23 66H18V46Z" fill="white" stroke="#385EC1" stroke-width="2"/>
<path d="M10 47C10 46.4477 10.4477 46 11 46H18V67C18 67.5523 17.5523 68 17 68H11C10.4477 68 10 67.5523 10 67V47Z" fill="white" stroke="#385EC1" stroke-width="2"/>
<path d="M26 39C26 38.4477 26.4477 38 27 38H69C69.5523 38 70 38.4477 70 39V41C70 42.6569 68.6569 44 67 44H29C27.3431 44 26 42.6569 26 41V39Z" fill="white" stroke="#385EC1" stroke-width="2"/>
<path fill-rule="evenodd" clip-rule="evenodd" d="M32 14C30.3431 14 29 15.3431 29 17V38H33V18C33 17.4477 33.4477 17 34 17H62C62.5523 17 63 17.4477 63 18V38H67V17C67 15.3431 65.6569 14 64 14H32Z" fill="white"/>
<path d="M29 38H28V39H29V38ZM33 38V39H34V38H33ZM63 38H62V39H63V38ZM67 38V39H68V38H67ZM30 17C30 15.8954 30.8954 15 32 15V13C29.7909 13 28 14.7909 28 17H30ZM30 38V17H28V38H30ZM33 37H29V39H33V37ZM34 38V18H32V38H34ZM34 18V16C32.8954 16 32 16.8954 32 18H34ZM34 18H62V16H34V18ZM62 18H64C64 16.8954 63.1046 16 62 16V18ZM62 18V38H64V18H62ZM67 37H63V39H67V37ZM66 17V38H68V17H66ZM64 15C65.1046 15 66 15.8954 66 17H68C68 14.7909 66.2091 13 64 13V15ZM32 15H64V13H32V15Z" fill="#385EC1"/>
<path fill-rule="evenodd" clip-rule="evenodd" d="M46 8C45.4477 8 45 8.44772 45 9V10.4578C44.4349 10.6353 43.8914 10.8616 43.3744 11.1318L41.9497 9.70714C41.5592 9.31662 40.9261 9.31662 40.5355 9.70714L37.7071 12.5356C37.3166 12.9261 37.3166 13.5593 37.7071 13.9498L39.1318 15.3745C38.8616 15.8914 38.6353 16.4349 38.4578 17H37C36.4477 17 36 17.4477 36 18V22C36 22.5523 36.4477 23 37 23H38.4578C38.5779 23.3825 38.7204 23.7551 38.8838 24.1162L37.7365 25.2635C37.346 25.654 37.346 26.2871 37.7365 26.6777L40.565 29.5061C40.9555 29.8966 41.5887 29.8966 41.9792 29.5061L42.8885 28.5967C43.5472 28.9892 44.2548 29.3081 45 29.5422V31C45 31.5523 45.4477 32 46 32H50C50.5523 32 51 31.5523 51 31V29.5422C51.5651 29.3647 52.1086 29.1384 52.6255 28.8682L53.2635 29.5061C53.654 29.8967 54.2871 29.8967 54.6777 29.5061L57.5061 26.6777C57.8966 26.2872 57.8966 25.654 57.5061 25.2635L56.8682 24.6256C57.1384 24.1086 57.3647 23.5651 57.5422 23H59C59.5523 23 60 22.5523 60 22V18C60 17.4477 59.5523 17 59 17H57.5422C57.3081 16.2548 56.9892 15.5472 56.5967 14.8885L57.5355 13.9497C57.9261 13.5592 57.9261 12.9261 57.5355 12.5355L54.7071 9.70711C54.3166 9.31658 53.6834 9.31658 53.2929 9.70711L52.1162 10.8838C51.7551 10.7204 51.3825 10.5779 51 10.4578V9C51 8.44772 50.5523 8 50 8H46ZM48 26C51.3137 26 54 23.3137 54 20C54 16.6863 51.3137 14 48 14C44.6863 14 42 16.6863 42 20C42 23.3137 44.6863 26 48 26Z" fill="white"/>
<path d="M45 10.4578L45.2996 11.4119L46 11.1919V10.4578H45ZM43.3744 11.1318L42.6673 11.8389L43.1867 12.3583L43.8376 12.0181L43.3744 11.1318ZM41.9497 9.70714L42.6569 9.00004L42.6569 9.00004L41.9497 9.70714ZM40.5355 9.70714L41.2426 10.4142L41.2426 10.4142L40.5355 9.70714ZM37.7071 12.5356L38.4142 13.2427L38.4142 13.2427L37.7071 12.5356ZM37.7071 13.9498L37 14.6569L37 14.6569L37.7071 13.9498ZM39.1318 15.3745L40.018 15.8377L40.3583 15.1867L39.8389 14.6673L39.1318 15.3745ZM38.4578 17V18H39.1919L39.4119 17.2996L38.4578 17ZM38.4578 23L39.4119 22.7004L39.1919 22H38.4578V23ZM38.8838 24.1162L39.5909 24.8233L40.0799 24.3343L39.7949 23.7042L38.8838 24.1162ZM37.7365 25.2635L38.4437 25.9706L38.4437 25.9706L37.7365 25.2635ZM37.7365 26.6777L38.4437 25.9706L38.4437 25.9706L37.7365 26.6777ZM40.565 29.5061L39.8579 30.2132L39.8579 30.2132L40.565 29.5061ZM41.9792 29.5061L41.2721 28.799L41.2721 28.799L41.9792 29.5061ZM42.8885 28.5967L43.4004 27.7377L42.7318 27.3393L42.1814 27.8896L42.8885 28.5967ZM45 29.5422H46V28.8081L45.2996 28.5881L45 29.5422ZM51 29.5422L50.7003 28.5881L50 28.8081V29.5422H51ZM52.6255 28.8682L53.3327 28.1611L52.8133 27.6417L52.1623 27.982L52.6255 28.8682ZM54.6777 29.5061L55.3848 30.2132L55.3848 30.2132L54.6777 29.5061ZM57.5061 26.6777L56.799 25.9706L56.799 25.9706L57.5061 26.6777ZM56.8682 24.6256L55.9819 24.1624L55.6417 24.8133L56.1611 25.3327L56.8682 24.6256ZM57.5422 23V22H56.8081L56.5881 22.7003L57.5422 23ZM57.5422 17L56.5881 17.2996L56.8081 18H57.5422V17ZM56.5967 14.8885L55.8896 14.1814L55.3393 14.7318L55.7377 15.4004L56.5967 14.8885ZM57.5355 13.9497L58.2426 14.6569L58.2426 14.6569L57.5355 13.9497ZM57.5355 12.5355L56.8284 13.2426L56.8284 13.2426L57.5355 12.5355ZM54.7071 9.70711L55.4142 9L55.4142 9L54.7071 9.70711ZM53.2929 9.70711L54 10.4142L54 10.4142L53.2929 9.70711ZM52.1162 10.8838L51.7042 11.7949L52.3343 12.0799L52.8233 11.5909L52.1162 10.8838ZM51 10.4578H50V11.1919L50.7004 11.4119L51 10.4578ZM46 9V9V7C44.8954 7 44 7.89543 44 9H46ZM46 10.4578V9H44V10.4578H46ZM43.8376 12.0181C44.3027 11.775 44.7915 11.5714 45.2996 11.4119L44.7004 9.50375C44.0782 9.69915 43.48 9.94826 42.9112 10.2456L43.8376 12.0181ZM41.2426 10.4142L42.6673 11.8389L44.0815 10.4247L42.6569 9.00004L41.2426 10.4142ZM41.2426 10.4142L41.2426 10.4142L42.6569 9.00004C41.8758 8.21899 40.6095 8.21899 39.8284 9.00004L41.2426 10.4142ZM38.4142 13.2427L41.2426 10.4142L39.8284 9.00004L37 11.8285L38.4142 13.2427ZM38.4142 13.2427L38.4142 13.2427L37 11.8285C36.219 12.6095 36.219 13.8758 37 14.6569L38.4142 13.2427ZM39.8389 14.6673L38.4142 13.2427L37 14.6569L38.4247 16.0816L39.8389 14.6673ZM39.4119 17.2996C39.5714 16.7915 39.775 16.3027 40.018 15.8377L38.2455 14.9113C37.9482 15.4801 37.6991 16.0782 37.5038 16.7004L39.4119 17.2996ZM37 18H38.4578V16H37V18ZM37 18V16C35.8954 16 35 16.8954 35 18H37ZM37 22V18H35V22H37ZM37 22H37H35C35 23.1046 35.8954 24 37 24V22ZM38.4578 22H37V24H38.4578V22ZM39.7949 23.7042C39.648 23.3793 39.5199 23.0443 39.4119 22.7004L37.5038 23.2996C37.636 23.7207 37.7929 24.1308 37.9726 24.5283L39.7949 23.7042ZM38.4437 25.9706L39.5909 24.8233L38.1767 23.4091L37.0294 24.5563L38.4437 25.9706ZM38.4437 25.9706V25.9706L37.0294 24.5563C36.2484 25.3374 36.2484 26.6037 37.0294 27.3848L38.4437 25.9706ZM41.2721 28.799L38.4437 25.9706L37.0294 27.3848L39.8579 30.2132L41.2721 28.799ZM41.2721 28.799L41.2721 28.799L39.8579 30.2132C40.6389 30.9943 41.9052 30.9943 42.6863 30.2132L41.2721 28.799ZM42.1814 27.8896L41.2721 28.799L42.6863 30.2132L43.5956 29.3038L42.1814 27.8896ZM45.2996 28.5881C44.6296 28.3777 43.9932 28.0909 43.4004 27.7377L42.3767 29.4558C43.1013 29.8876 43.88 30.2386 44.7004 30.4962L45.2996 28.5881ZM46 31V29.5422H44V31H46ZM46 31H44C44 32.1046 44.8954 33 46 33V31ZM50 31H46V33H50V31ZM50 31V33C51.1046 33 52 32.1046 52 31H50ZM50 29.5422V31H52V29.5422H50ZM52.1623 27.982C51.6973 28.225 51.2085 28.4286 50.7003 28.5881L51.2997 30.4962C51.9218 30.3009 52.5199 30.0518 53.0887 29.7545L52.1623 27.982ZM53.9706 28.799L53.3327 28.1611L51.9184 29.5753L52.5563 30.2132L53.9706 28.799ZM53.9706 28.799H53.9706L52.5563 30.2132C53.3374 30.9943 54.6037 30.9943 55.3848 30.2132L53.9706 28.799ZM56.799 25.9706L53.9706 28.799L55.3848 30.2132L58.2132 27.3848L56.799 25.9706ZM56.799 25.9706V25.9706L58.2132 27.3848C58.9943 26.6038 58.9943 25.3374 58.2132 24.5564L56.799 25.9706ZM56.1611 25.3327L56.799 25.9706L58.2132 24.5564L57.5753 23.9185L56.1611 25.3327ZM56.5881 22.7003C56.4286 23.2085 56.225 23.6973 55.9819 24.1624L57.7544 25.0888C58.0517 24.52 58.3008 23.9218 58.4962 23.2997L56.5881 22.7003ZM59 22H57.5422V24H59V22ZM59 22V24C60.1046 24 61 23.1046 61 22H59ZM59 18V22H61V18H59ZM59 18H61C61 16.8954 60.1046 16 59 16V18ZM57.5422 18H59V16H57.5422V18ZM55.7377 15.4004C56.0909 15.9932 56.3777 16.6296 56.5881 17.2996L58.4962 16.7004C58.2386 15.88 57.8876 15.1013 57.4558 14.3767L55.7377 15.4004ZM56.8284 13.2426L55.8896 14.1814L57.3038 15.5956L58.2426 14.6569L56.8284 13.2426ZM56.8284 13.2426L56.8284 13.2426L58.2426 14.6569C59.0237 13.8758 59.0237 12.6095 58.2426 11.8284L56.8284 13.2426ZM54 10.4142L56.8284 13.2426L58.2426 11.8284L55.4142 9L54 10.4142ZM54 10.4142L54 10.4142L55.4142 9C54.6332 8.21895 53.3668 8.21895 52.5858 9L54 10.4142ZM52.8233 11.5909L54 10.4142L52.5858 9L51.4091 10.1767L52.8233 11.5909ZM50.7004 11.4119C51.0443 11.5199 51.3793 11.648 51.7042 11.7949L52.5283 9.9726C52.1308 9.79285 51.7207 9.636 51.2996 9.50375L50.7004 11.4119ZM50 9V10.4578H52V9H50ZM50 9H52C52 7.89543 51.1046 7 50 7V9ZM46 9H50V7H46V9ZM53 20C53 22.7614 50.7614 25 48 25V27C51.866 27 55 23.866 55 20H53ZM48 15C50.7614 15 53 17.2386 53 20H55C55 16.134 51.866 13 48 13V15ZM43 20C43 17.2386 45.2386 15 48 15V13C44.134 13 41 16.134 41 20H43ZM48 25C45.2386 25 43 22.7614 43 20H41C41 23.866 44.134 27 48 27V25Z" fill="#385EC1"/>
</svg>
