<svg width="201" height="42" viewBox="0 0 201 42" fill="none" xmlns="http://www.w3.org/2000/svg">
<path d="M62.9658 8.82812V33H58.002V8.82812H62.9658ZM70.4033 8.82812V12.7295H50.6807V8.82812H70.4033ZM79.6504 33.332C78.2559 33.332 77.0052 33.1107 75.8984 32.668C74.7917 32.2142 73.8509 31.5889 73.0762 30.792C72.3125 29.9951 71.7259 29.071 71.3164 28.0195C70.9069 26.957 70.7021 25.8281 70.7021 24.6328V23.9688C70.7021 22.6074 70.8958 21.3623 71.2832 20.2334C71.6706 19.1045 72.224 18.125 72.9434 17.2949C73.6738 16.4648 74.5592 15.8285 75.5996 15.3857C76.64 14.932 77.8132 14.7051 79.1191 14.7051C80.3919 14.7051 81.5208 14.9154 82.5059 15.3359C83.4909 15.7565 84.3154 16.3542 84.9795 17.1289C85.6546 17.9036 86.1637 18.8333 86.5068 19.918C86.8499 20.9915 87.0215 22.1868 87.0215 23.5039V25.4961H72.7441V22.3086H82.3232V21.9434C82.3232 21.2793 82.2015 20.6872 81.958 20.167C81.7256 19.6357 81.3714 19.2152 80.8955 18.9053C80.4196 18.5954 79.8109 18.4404 79.0693 18.4404C78.4385 18.4404 77.8962 18.5788 77.4424 18.8555C76.9886 19.1322 76.6178 19.5195 76.3301 20.0176C76.0534 20.5156 75.8431 21.1022 75.6992 21.7773C75.5664 22.4414 75.5 23.1719 75.5 23.9688V24.6328C75.5 25.3522 75.5996 26.0163 75.7988 26.625C76.0091 27.2337 76.3024 27.7594 76.6787 28.2021C77.0661 28.6449 77.5309 28.988 78.0732 29.2314C78.6266 29.4749 79.252 29.5967 79.9492 29.5967C80.8125 29.5967 81.6149 29.4307 82.3564 29.0986C83.109 28.7555 83.7565 28.2409 84.2988 27.5547L86.623 30.0781C86.2467 30.6204 85.7321 31.1406 85.0791 31.6387C84.4372 32.1367 83.6624 32.5462 82.7549 32.8672C81.8473 33.1771 80.8125 33.332 79.6504 33.332ZM97.165 29.5967C97.7516 29.5967 98.2718 29.486 98.7256 29.2646C99.1794 29.0322 99.5335 28.7113 99.7881 28.3018C100.054 27.8812 100.192 27.3887 100.203 26.8242H104.702C104.691 28.0859 104.354 29.2093 103.689 30.1943C103.025 31.1683 102.134 31.9375 101.017 32.502C99.8988 33.0553 98.6481 33.332 97.2646 33.332C95.8701 33.332 94.6527 33.0996 93.6123 32.6348C92.583 32.1699 91.7253 31.528 91.0391 30.709C90.3529 29.8789 89.8382 28.916 89.4951 27.8203C89.152 26.7135 88.9805 25.5293 88.9805 24.2676V23.7861C88.9805 22.5133 89.152 21.3291 89.4951 20.2334C89.8382 19.1266 90.3529 18.1637 91.0391 17.3447C91.7253 16.5146 92.583 15.8672 93.6123 15.4023C94.6416 14.9375 95.848 14.7051 97.2314 14.7051C98.7035 14.7051 99.9928 14.9873 101.1 15.5518C102.217 16.1162 103.092 16.9242 103.723 17.9756C104.365 19.016 104.691 20.25 104.702 21.6777H100.203C100.192 21.0801 100.065 20.5378 99.8213 20.0508C99.5889 19.5638 99.2458 19.1764 98.792 18.8887C98.3493 18.5898 97.8014 18.4404 97.1484 18.4404C96.4512 18.4404 95.8812 18.5898 95.4385 18.8887C94.9958 19.1764 94.6527 19.5749 94.4092 20.084C94.1657 20.582 93.9941 21.152 93.8945 21.7939C93.806 22.4248 93.7617 23.0889 93.7617 23.7861V24.2676C93.7617 24.9648 93.806 25.6344 93.8945 26.2764C93.9831 26.9183 94.1491 27.4883 94.3926 27.9863C94.6471 28.4844 94.9958 28.8773 95.4385 29.165C95.8812 29.4528 96.4567 29.5967 97.165 29.5967ZM112.14 7.5V33H107.358V7.5H112.14ZM111.459 23.3877H110.147C110.159 22.137 110.325 20.986 110.646 19.9346C110.966 18.8721 111.426 17.9535 112.023 17.1787C112.621 16.3929 113.335 15.7842 114.165 15.3525C115.006 14.9209 115.936 14.7051 116.954 14.7051C117.84 14.7051 118.642 14.8324 119.361 15.0869C120.092 15.3304 120.717 15.7288 121.237 16.2822C121.769 16.8245 122.178 17.5384 122.466 18.4238C122.754 19.3092 122.897 20.3828 122.897 21.6445V33H118.083V21.6113C118.083 20.8145 117.967 20.1891 117.734 19.7354C117.513 19.2705 117.187 18.944 116.755 18.7559C116.334 18.5566 115.814 18.457 115.194 18.457C114.508 18.457 113.922 18.5843 113.435 18.8389C112.959 19.0934 112.577 19.4476 112.289 19.9014C112.001 20.3441 111.791 20.8643 111.658 21.4619C111.525 22.0596 111.459 22.7015 111.459 23.3877ZM131.812 8.82812V33H126.832V8.82812H131.812ZM141.441 19.1543V23.0391H130.451V19.1543H141.441ZM142.604 8.82812V12.7295H130.451V8.82812H142.604ZM150.24 15.0371V33H145.442V15.0371H150.24ZM145.144 10.3555C145.144 9.6582 145.387 9.08268 145.874 8.62891C146.361 8.17513 147.014 7.94824 147.833 7.94824C148.641 7.94824 149.288 8.17513 149.775 8.62891C150.273 9.08268 150.522 9.6582 150.522 10.3555C150.522 11.0527 150.273 11.6283 149.775 12.082C149.288 12.5358 148.641 12.7627 147.833 12.7627C147.014 12.7627 146.361 12.5358 145.874 12.082C145.387 11.6283 145.144 11.0527 145.144 10.3555ZM158.043 15.0371L161.015 20.499L164.069 15.0371H169.166L164.086 23.8193L169.398 33H164.285L161.048 27.2227L157.811 33H152.697L158.01 23.8193L152.93 15.0371H158.043ZM179.426 33.332C178.031 33.332 176.781 33.1107 175.674 32.668C174.567 32.2142 173.626 31.5889 172.852 30.792C172.088 29.9951 171.501 29.071 171.092 28.0195C170.682 26.957 170.478 25.8281 170.478 24.6328V23.9688C170.478 22.6074 170.671 21.3623 171.059 20.2334C171.446 19.1045 171.999 18.125 172.719 17.2949C173.449 16.4648 174.335 15.8285 175.375 15.3857C176.415 14.932 177.589 14.7051 178.895 14.7051C180.167 14.7051 181.296 14.9154 182.281 15.3359C183.266 15.7565 184.091 16.3542 184.755 17.1289C185.43 17.9036 185.939 18.8333 186.282 19.918C186.625 20.9915 186.797 22.1868 186.797 23.5039V25.4961H172.52V22.3086H182.099V21.9434C182.099 21.2793 181.977 20.6872 181.733 20.167C181.501 19.6357 181.147 19.2152 180.671 18.9053C180.195 18.5954 179.586 18.4404 178.845 18.4404C178.214 18.4404 177.672 18.5788 177.218 18.8555C176.764 19.1322 176.393 19.5195 176.105 20.0176C175.829 20.5156 175.618 21.1022 175.475 21.7773C175.342 22.4414 175.275 23.1719 175.275 23.9688V24.6328C175.275 25.3522 175.375 26.0163 175.574 26.625C175.785 27.2337 176.078 27.7594 176.454 28.2021C176.841 28.6449 177.306 28.988 177.849 29.2314C178.402 29.4749 179.027 29.5967 179.725 29.5967C180.588 29.5967 181.39 29.4307 182.132 29.0986C182.884 28.7555 183.532 28.2409 184.074 27.5547L186.398 30.0781C186.022 30.6204 185.507 31.1406 184.854 31.6387C184.213 32.1367 183.438 32.5462 182.53 32.8672C181.623 33.1771 180.588 33.332 179.426 33.332ZM194.301 18.9551V33H189.52V15.0371H194.019L194.301 18.9551ZM199.713 14.9209L199.63 19.3535C199.397 19.3203 199.115 19.2926 198.783 19.2705C198.462 19.2373 198.169 19.2207 197.903 19.2207C197.228 19.2207 196.642 19.3092 196.144 19.4863C195.657 19.6523 195.247 19.9014 194.915 20.2334C194.594 20.5654 194.351 20.9694 194.185 21.4453C194.03 21.9212 193.941 22.4635 193.919 23.0723L192.956 22.7734C192.956 21.6113 193.072 20.5433 193.305 19.5693C193.537 18.5843 193.875 17.7266 194.317 16.9961C194.771 16.2656 195.325 15.7012 195.978 15.3027C196.631 14.9043 197.378 14.7051 198.219 14.7051C198.484 14.7051 198.756 14.7272 199.032 14.7715C199.309 14.8047 199.536 14.8545 199.713 14.9209Z" fill="white"/>
<path d="M11 27.6667H18L22.3333 33L39.6667 33.3334L41 36L20 40.6667L15.6667 38.3334H11V27.6667Z" fill="white"/>
<path d="M11 38.3333H13.9181C14.8434 38.3333 15.7506 38.5901 16.5386 39.075L18.9794 40.5771C19.4203 40.8484 19.9493 40.9382 20.455 40.8276L40.4545 36.4527C40.773 36.383 41 36.101 41 35.7749V35.7749C41 34.2424 39.7576 33 38.2251 33H22.6667" stroke="#385EC1"/>
<path d="M11 27.6667H17.8527C18.1565 27.6667 18.4438 27.8048 18.6336 28.042L21.9548 32.1935C22.1998 32.4998 22.3333 32.8804 22.3333 33.2726V33.2726C22.3333 34.2266 21.56 35 20.6059 35H20.2437C19.8742 35 19.5199 34.8532 19.2586 34.592L16.6667 32L16.3333 31.6667" stroke="#385EC1"/>
<path d="M6.3335 26.3333H9.3335C9.88578 26.3333 10.3335 26.781 10.3335 27.3333V38.6666C10.3335 39.2189 9.88578 39.6666 9.3335 39.6666H6.3335V26.3333Z" fill="white" stroke="#385EC1"/>
<path d="M1 27.3333C1 26.781 1.44772 26.3333 2 26.3333H6.33333V40C6.33333 40.5523 5.88562 41 5.33333 41H2C1.44772 41 1 40.5523 1 40V27.3333Z" fill="white" stroke="#385EC1"/>
<path d="M11.6665 22C11.6665 21.4477 12.1142 21 12.6665 21H39.9998C40.5521 21 40.9998 21.4477 40.9998 22V22C40.9998 23.6569 39.6567 25 37.9998 25H14.6665C13.0097 25 11.6665 23.6569 11.6665 22V22Z" fill="white" stroke="#385EC1"/>
<path fill-rule="evenodd" clip-rule="evenodd" d="M16.6665 5C15.0096 5 13.6665 6.34315 13.6665 8V21H16.3332V8C16.3332 7.44772 16.7809 7 17.3332 7H35.3332C35.8855 7 36.3332 7.44772 36.3332 8V21H38.9998V8C38.9998 6.34315 37.6567 5 35.9998 5H33.4998H17.4999H16.6665Z" fill="white"/>
<path d="M13.6665 21H13.1665V21.5H13.6665V21ZM16.3332 21V21.5H16.8332V21H16.3332ZM36.3332 21H35.8332V21.5H36.3332V21ZM38.9998 21V21.5H39.4998V21H38.9998ZM14.1665 8C14.1665 6.61929 15.2858 5.5 16.6665 5.5V4.5C14.7335 4.5 13.1665 6.067 13.1665 8H14.1665ZM14.1665 21V8H13.1665V21H14.1665ZM16.3332 20.5H13.6665V21.5H16.3332V20.5ZM16.8332 21V8H15.8332V21H16.8332ZM16.8332 8C16.8332 7.72386 17.0571 7.5 17.3332 7.5V6.5C16.5048 6.5 15.8332 7.17157 15.8332 8H16.8332ZM17.3332 7.5H35.3332V6.5H17.3332V7.5ZM35.3332 7.5C35.6094 7.5 35.8332 7.72386 35.8332 8H36.8332C36.8332 7.17157 36.1616 6.5 35.3332 6.5V7.5ZM35.8332 8V21H36.8332V8H35.8332ZM38.9998 20.5H36.3332V21.5H38.9998V20.5ZM38.4998 8V21H39.4998V8H38.4998ZM35.9998 5.5C37.3805 5.5 38.4998 6.61929 38.4998 8H39.4998C39.4998 6.067 37.9328 4.5 35.9998 4.5V5.5ZM33.4998 5.5H35.9998V4.5H33.4998V5.5ZM17.4999 5.5H33.4998V4.5H17.4999V5.5ZM16.6665 5.5H17.4999V4.5H16.6665V5.5Z" fill="#385EC1"/>
<path fill-rule="evenodd" clip-rule="evenodd" d="M25.3335 1C24.7812 1 24.3335 1.44772 24.3335 2V2.63852C23.9567 2.75685 23.5944 2.90773 23.2498 3.08786L22.5357 2.3738C22.1452 1.98327 21.512 1.98327 21.1215 2.3738L19.7073 3.78801C19.3167 4.17853 19.3167 4.8117 19.7073 5.20222L20.4213 5.91628C20.2412 6.26091 20.0903 6.62325 19.972 7H19.3335C18.7812 7 18.3335 7.44772 18.3335 8V10C18.3335 10.5523 18.7812 11 19.3335 11H19.972C20.0521 11.255 20.1471 11.5034 20.256 11.7442L19.7269 12.2733C19.3364 12.6638 19.3364 13.297 19.7269 13.6875L21.1411 15.1017C21.5316 15.4922 22.1648 15.4922 22.5553 15.1017L22.9258 14.7312C23.365 14.9928 23.8367 15.2054 24.3335 15.3615V16C24.3335 16.5523 24.7812 17 25.3335 17H27.3335C27.8858 17 28.3335 16.5523 28.3335 16V15.3615C28.7102 15.2431 29.0726 15.0923 29.4172 14.9121L29.6068 15.1017C29.9973 15.4922 30.6305 15.4922 31.021 15.1017L32.4352 13.6875C32.8257 13.297 32.8257 12.6638 32.4352 12.2733L32.2456 12.0837C32.4257 11.7391 32.5766 11.3767 32.6949 11H33.3335C33.8858 11 34.3335 10.5523 34.3335 10V8C34.3335 7.44772 33.8858 7 33.3335 7H32.6949C32.5389 6.50322 32.3263 6.0315 32.0646 5.59239L32.4548 5.2022C32.8453 4.81168 32.8453 4.17851 32.4548 3.78799L31.0406 2.37377C30.6501 1.98325 30.0169 1.98325 29.6264 2.37377L29.0776 2.92252C28.8369 2.81364 28.5885 2.71864 28.3335 2.63855V2C28.3335 1.44772 27.8858 1 27.3335 1H25.3335ZM26.3335 13C28.5426 13 30.3335 11.2091 30.3335 9C30.3335 6.79086 28.5426 5 26.3335 5C24.1243 5 22.3335 6.79086 22.3335 9C22.3335 11.2091 24.1243 13 26.3335 13Z" fill="white"/>
<path d="M24.3335 2.63852L24.4833 3.11555L24.8335 3.00557V2.63852H24.3335ZM23.2498 3.08786L22.8962 3.44141L23.1559 3.70109L23.4814 3.53098L23.2498 3.08786ZM22.5357 2.3738L22.1821 2.72735L22.1821 2.72735L22.5357 2.3738ZM21.1215 2.3738L20.7679 2.02024L20.7679 2.02024L21.1215 2.3738ZM19.7073 3.78801L19.3537 3.43446L19.3537 3.43446L19.7073 3.78801ZM19.7073 5.20222L20.0608 4.84867L20.0608 4.84867L19.7073 5.20222ZM20.4213 5.91628L20.8644 6.14788L21.0346 5.82241L20.7749 5.56272L20.4213 5.91628ZM19.972 7V7.5H20.339L20.449 7.14982L19.972 7ZM19.972 11L20.449 10.8502L20.339 10.5H19.972V11ZM20.256 11.7442L20.6095 12.0977L20.854 11.8532L20.7116 11.5382L20.256 11.7442ZM19.7269 12.2733L20.0804 12.6268L20.0804 12.6268L19.7269 12.2733ZM19.7269 13.6875L19.3733 14.041L19.3733 14.041L19.7269 13.6875ZM21.1411 15.1017L21.4947 14.7481L21.4947 14.7481L21.1411 15.1017ZM22.5553 15.1017L22.2018 14.7481L22.2018 14.7481L22.5553 15.1017ZM22.9258 14.7312L23.1818 14.3016L22.8475 14.1024L22.5723 14.3776L22.9258 14.7312ZM24.3335 15.3615H24.8335V14.9944L24.4833 14.8845L24.3335 15.3615ZM28.3335 15.3615L28.1837 14.8844L27.8335 14.9944V15.3615H28.3335ZM29.4172 14.9121L29.7707 14.5586L29.511 14.2989L29.1856 14.469L29.4172 14.9121ZM32.2456 12.0837L31.8025 11.8521L31.6324 12.1776L31.892 12.4373L32.2456 12.0837ZM32.6949 11V10.5H32.3279L32.2179 10.8502L32.6949 11ZM32.6949 7L32.2179 7.14982L32.3279 7.5H32.6949V7ZM32.0646 5.59239L31.7111 5.23883L31.4359 5.51401L31.6351 5.84833L32.0646 5.59239ZM32.4548 5.2022L32.8084 5.55575L32.8084 5.55575L32.4548 5.2022ZM32.4548 3.78799L32.8084 3.43443L32.8084 3.43443L32.4548 3.78799ZM31.0406 2.37377L30.687 2.72733L30.687 2.72733L31.0406 2.37377ZM29.6264 2.37377L29.9799 2.72733L29.9799 2.72733L29.6264 2.37377ZM29.0776 2.92252L28.8716 3.3781L29.1867 3.52059L29.4312 3.27607L29.0776 2.92252ZM28.3335 2.63855H27.8335V3.00559L28.1837 3.11557L28.3335 2.63855ZM24.8335 2C24.8335 1.72386 25.0574 1.5 25.3335 1.5V0.5C24.5051 0.5 23.8335 1.17157 23.8335 2H24.8335ZM24.8335 2.63852V2H23.8335V2.63852H24.8335ZM23.4814 3.53098C23.8001 3.36441 24.1351 3.22493 24.4833 3.11555L24.1837 2.1615C23.7784 2.28878 23.3887 2.45105 23.0182 2.64473L23.4814 3.53098ZM22.1821 2.72735L22.8962 3.44141L23.6033 2.7343L22.8892 2.02024L22.1821 2.72735ZM21.475 2.72735C21.6703 2.53209 21.9869 2.53209 22.1821 2.72735L22.8892 2.02024C22.3035 1.43446 21.3537 1.43446 20.7679 2.02024L21.475 2.72735ZM20.0608 4.14156L21.475 2.72735L20.7679 2.02024L19.3537 3.43446L20.0608 4.14156ZM20.0608 4.84867C19.8656 4.65341 19.8656 4.33683 20.0608 4.14156L19.3537 3.43446C18.7679 4.02024 18.7679 4.96999 19.3537 5.55578L20.0608 4.84867ZM20.7749 5.56272L20.0608 4.84867L19.3537 5.55578L20.0678 6.26983L20.7749 5.56272ZM20.449 7.14982C20.5584 6.80157 20.6979 6.46658 20.8644 6.14788L19.9782 5.68467C19.7845 6.05524 19.6222 6.44492 19.495 6.85018L20.449 7.14982ZM19.3335 7.5H19.972V6.5H19.3335V7.5ZM18.8335 8C18.8335 7.72386 19.0574 7.5 19.3335 7.5V6.5C18.5051 6.5 17.8335 7.17157 17.8335 8H18.8335ZM18.8335 10V8H17.8335V10H18.8335ZM19.3335 10.5C19.0574 10.5 18.8335 10.2761 18.8335 10H17.8335C17.8335 10.8284 18.5051 11.5 19.3335 11.5V10.5ZM19.972 10.5H19.3335V11.5H19.972V10.5ZM20.7116 11.5382C20.6109 11.3155 20.5231 11.0859 20.449 10.8502L19.495 11.1498C19.5811 11.4241 19.6833 11.6913 19.8004 11.9502L20.7116 11.5382ZM20.0804 12.6268L20.6095 12.0977L19.9024 11.3906L19.3733 11.9197L20.0804 12.6268ZM20.0804 13.3339C19.8852 13.1387 19.8852 12.8221 20.0804 12.6268L19.3733 11.9197C18.7876 12.5055 18.7876 13.4552 19.3733 14.041L20.0804 13.3339ZM21.4947 14.7481L20.0804 13.3339L19.3733 14.041L20.7876 15.4552L21.4947 14.7481ZM22.2018 14.7481C22.0065 14.9434 21.6899 14.9434 21.4947 14.7481L20.7876 15.4552C21.3733 16.041 22.3231 16.041 22.9089 15.4552L22.2018 14.7481ZM22.5723 14.3776L22.2018 14.7481L22.9089 15.4552L23.2794 15.0847L22.5723 14.3776ZM24.4833 14.8845C24.0241 14.7402 23.5879 14.5437 23.1818 14.3016L22.6699 15.1607C23.142 15.442 23.6493 15.6707 24.1837 15.8385L24.4833 14.8845ZM24.8335 16V15.3615H23.8335V16H24.8335ZM25.3335 16.5C25.0574 16.5 24.8335 16.2761 24.8335 16H23.8335C23.8335 16.8284 24.5051 17.5 25.3335 17.5V16.5ZM27.3335 16.5H25.3335V17.5H27.3335V16.5ZM27.8335 16C27.8335 16.2761 27.6096 16.5 27.3335 16.5V17.5C28.1619 17.5 28.8335 16.8284 28.8335 16H27.8335ZM27.8335 15.3615V16H28.8335V15.3615H27.8335ZM29.1856 14.469C28.8669 14.6356 28.5319 14.775 28.1837 14.8844L28.4833 15.8385C28.8886 15.7112 29.2782 15.5489 29.6488 15.3553L29.1856 14.469ZM29.9603 14.7482L29.7707 14.5586L29.0636 15.2657L29.2532 15.4553L29.9603 14.7482ZM30.6674 14.7482C30.4722 14.9434 30.1556 14.9434 29.9603 14.7482L29.2532 15.4553C29.839 16.0411 30.7887 16.0411 31.3745 15.4553L30.6674 14.7482ZM32.0816 13.334L30.6674 14.7482L31.3745 15.4553L32.7887 14.0411L32.0816 13.334ZM32.0816 12.6268C32.2769 12.8221 32.2769 13.1387 32.0816 13.334L32.7887 14.0411C33.3745 13.4553 33.3745 12.5055 32.7887 11.9197L32.0816 12.6268ZM31.892 12.4373L32.0816 12.6268L32.7887 11.9197L32.5992 11.7301L31.892 12.4373ZM32.2179 10.8502C32.1085 11.1984 31.969 11.5334 31.8025 11.8521L32.6887 12.3153C32.8824 11.9447 33.0447 11.5551 33.1719 11.1498L32.2179 10.8502ZM33.3335 10.5H32.6949V11.5H33.3335V10.5ZM33.8335 10C33.8335 10.2761 33.6096 10.5 33.3335 10.5V11.5C34.1619 11.5 34.8335 10.8284 34.8335 10H33.8335ZM33.8335 8V10H34.8335V8H33.8335ZM33.3335 7.5C33.6096 7.5 33.8335 7.72386 33.8335 8H34.8335C34.8335 7.17157 34.1619 6.5 33.3335 6.5V7.5ZM32.6949 7.5H33.3335V6.5H32.6949V7.5ZM31.6351 5.84833C31.8771 6.25448 32.0737 6.69063 32.2179 7.14982L33.1719 6.85018C33.0041 6.31581 32.7754 5.80852 32.4942 5.33645L31.6351 5.84833ZM32.1013 4.84865L31.7111 5.23883L32.4182 5.94594L32.8084 5.55575L32.1013 4.84865ZM32.1013 4.14154C32.2965 4.3368 32.2965 4.65339 32.1013 4.84865L32.8084 5.55575C33.3942 4.96997 33.3942 4.02022 32.8084 3.43443L32.1013 4.14154ZM30.687 2.72733L32.1013 4.14154L32.8084 3.43443L31.3942 2.02022L30.687 2.72733ZM29.9799 2.72733C30.1752 2.53206 30.4918 2.53206 30.687 2.72733L31.3942 2.02022C30.8084 1.43443 29.8586 1.43443 29.2728 2.02022L29.9799 2.72733ZM29.4312 3.27607L29.9799 2.72733L29.2728 2.02022L28.7241 2.56897L29.4312 3.27607ZM28.1837 3.11557C28.4194 3.1896 28.649 3.27743 28.8716 3.3781L29.2837 2.46694C29.0248 2.34985 28.7576 2.24767 28.4833 2.16152L28.1837 3.11557ZM27.8335 2V2.63855H28.8335V2H27.8335ZM27.3335 1.5C27.6096 1.5 27.8335 1.72386 27.8335 2H28.8335C28.8335 1.17157 28.1619 0.5 27.3335 0.5V1.5ZM25.3335 1.5H27.3335V0.5H25.3335V1.5ZM29.8335 9C29.8335 10.933 28.2665 12.5 26.3335 12.5V13.5C28.8187 13.5 30.8335 11.4853 30.8335 9H29.8335ZM26.3335 5.5C28.2665 5.5 29.8335 7.067 29.8335 9H30.8335C30.8335 6.51472 28.8187 4.5 26.3335 4.5V5.5ZM22.8335 9C22.8335 7.067 24.4005 5.5 26.3335 5.5V4.5C23.8482 4.5 21.8335 6.51472 21.8335 9H22.8335ZM26.3335 12.5C24.4005 12.5 22.8335 10.933 22.8335 9H21.8335C21.8335 11.4853 23.8482 13.5 26.3335 13.5V12.5Z" fill="#385EC1"/>
</svg>
